<svg xmlns="http://www.w3.org/2000/svg" viewBox="0 0 333.07 120.99"><defs><style>.cls-1{fill:#ff5a19;}.cls-2{fill:#fff;}</style></defs><title>Asset 1</title><g id="Layer_2" data-name="Layer 2"><g id="Layer_1-2" data-name="Layer 1"><path class="cls-1" d="M332.5,85.19,252.37,1.73a2.16,2.16,0,0,0-3.68,1.41L245.2,92a2,2,0,0,0,.58,1.48c1.14,1.11,1.3,3.59,2.8,3.73,8.06.79,12.12-6.07,16.85-2.48,8.57,6.51,24.88-.24,32.47-8s12.26-5,17-8,9.92-6.34,6.33-2-5.84,4.68-13.61,9S305.33,89,295,94.3s-5.23,6.17-15.84,6.42-6.35,4.89-13.38,3.68-1.51-5.18-11.71-3.94a69.65,69.65,0,0,1-7.22.5,2.13,2.13,0,0,0-2.09,2l-.62,15.84a2.08,2.08,0,0,0,2.09,2.15,128.33,128.33,0,0,0,86.12-32.81A2.08,2.08,0,0,0,332.5,85.19Zm-72.9-60.4a6.54,6.54,0,1,1-3.77,8.59A6.63,6.63,0,0,1,259.6,24.79Zm-6.76,45.08a11.6,11.6,0,1,1,15,6.11A11.46,11.46,0,0,1,252.84,69.87ZM286.31,85.8a7.73,7.73,0,1,1,4.45-10.14A7.83,7.83,0,0,1,286.31,85.8Zm8.11-20.6a7.73,7.73,0,1,1,4.45-10.14A7.85,7.85,0,0,1,294.42,65.2Z"/><path class="cls-2" d="M12.83,21.36Q40.15,18.81,51,20.63t13.79,10q2.94,8.15.16,23.11T44.59,73L26.82,77l-6.42.7L17.93,101.1Q6.7,105,0,99.36l7-74.3ZM24.41,36.57,21.88,61.34q22.65-1.52,25.48-9.13t.36-12.84Q45.25,34.12,24.41,36.57Z"/><path class="cls-2" d="M79.2,20.77a35.2,35.2,0,0,1,18,.81l-6.47,79.9q-11.19,3.15-18.92-.82Z"/><path class="cls-2" d="M110.9,20.06l52.77.05q5.31,7.61,1,17l-36,47.68,33.84-.59q3.51,8.63.17,18.52l-56,.21q-5.43-4.93-2.19-16l36.64-48.66L108,38.58Q106,27.89,110.9,20.06Z"/><path class="cls-2" d="M182.7,20.06l52.76.05q5.32,7.61,1,17l-36,47.68,33.84-.59q3.51,8.63.16,18.52l-56,.21q-5.43-4.93-2.2-16l36.64-48.66-33.13.32Q177.77,27.89,182.7,20.06Z"/><path class="cls-2" d="M20.06.29l.37,8.34L26.71.27a6,6,0,0,1,2.88,0L25.05,15l-3.36,0,2.15-7L19,14.87a1,1,0,0,1-1.32-.28l-.06-6.7L15.32,15,12,15,16.63.27A5.35,5.35,0,0,1,20.06.29Z"/><path class="cls-2" d="M32.76.3A32.92,32.92,0,0,1,40,.17C41.28.39,42,1,42.13,2a8.13,8.13,0,0,1-.94,4c-.75,1.68-2.29,2.79-4.63,3.31l2.55,4.54a3.1,3.1,0,0,1-3.69,1.26l-2.39-5-1.24.12-1.63,4.69c-1.53.48-2.63.37-3.3-.32L31.49,1Zm1.5,2.78-1.45,4.1C35.7,7,37.41,6.51,38,5.72a2.7,2.7,0,0,0,.57-2.13Q38.28,2.63,34.26,3.08Z"/><path class="cls-2" d="M42.8,11.48a1.47,1.47,0,0,1,.78.21,1.06,1.06,0,0,1,.48.6,1.39,1.39,0,0,1,0,.81,2,2,0,0,1-.42.8,2.22,2.22,0,0,1-1.65.81,1.48,1.48,0,0,1-.79-.21,1.1,1.1,0,0,1-.48-.6,1.45,1.45,0,0,1,0-.8,2,2,0,0,1,.42-.81,2.33,2.33,0,0,1,.77-.6A2.1,2.1,0,0,1,42.8,11.48Z"/></g></g></svg>